<svg xmlns="http://www.w3.org/2000/svg" viewBox="0 0 400 300" fill="none">
  <rect width="400" height="300" fill="#F5EDE3"/>
  <g transform="translate(150, 80)">
    <path d="M50 20C50 20 35 0 20 5C5 10 0 30 10 45C15 52 25 55 35 55" stroke="#D4C4B0" stroke-width="3" stroke-linecap="round"/>
    <path d="M50 20C50 20 65 0 80 5C95 10 100 30 90 45C85 52 75 55 65 55" stroke="#D4C4B0" stroke-width="3" stroke-linecap="round"/>
    <circle cx="50" cy="60" r="40" stroke="#D4C4B0" stroke-width="3" fill="none"/>
    <circle cx="38" cy="52" r="4" fill="#D4C4B0"/>
    <circle cx="62" cy="52" r="4" fill="#D4C4B0"/>
    <ellipse cx="50" cy="68" rx="8" ry="5" fill="#D4C4B0"/>
    <path d="M42 75C42 75 46 82 50 82C54 82 58 75 58 75" stroke="#D4C4B0" stroke-width="2" stroke-linecap="round"/>
  </g>
  <text x="200" y="190" text-anchor="middle" font-family="Georgia, serif" font-size="16" fill="#8B8B8B">No photo available</text>
  <text x="200" y="215" text-anchor="middle" font-family="system-ui, sans-serif" font-size="12" fill="#B0B0B0">This dog is waiting to meet you</text>
</svg>
